<?xml version="1.0" encoding="utf-8"?>
<!-- Generator: Adobe Illustrator 21.1.0, SVG Export Plug-In . SVG Version: 6.00 Build 0)  -->
<svg version="1.1" id="Layer_1" xmlns="http://www.w3.org/2000/svg" xmlns:xlink="http://www.w3.org/1999/xlink" x="0px" y="0px"
	 viewBox="0 0 636.1 140.4" style="enable-background:new 0 0 636.1 140.4;" xml:space="preserve">
<style type="text/css">
	.st0{fill:url(#SVGID_1_);}
	.st1{fill:url(#SVGID_2_);}
	.st2{fill:url(#SVGID_3_);}
	.st3{fill:url(#SVGID_4_);}
	.st4{fill:url(#SVGID_5_);}
	.st5{fill:url(#SVGID_6_);}
	.st6{fill:url(#SVGID_7_);}
	.st7{fill:url(#SVGID_8_);}
	.st8{fill:url(#SVGID_9_);}
	.st9{fill:url(#SVGID_10_);}
	.st10{fill:url(#SVGID_11_);}
	.st11{fill:url(#SVGID_12_);}
	.st12{fill:url(#SVGID_13_);}
	.st13{fill:url(#SVGID_14_);}
	.st14{fill:url(#SVGID_15_);}
	.st15{fill:url(#SVGID_16_);}
</style>
<g>
	<g>
		<linearGradient id="SVGID_1_" gradientUnits="userSpaceOnUse" x1="46.6227" y1="73.8798" x2="46.6227" y2="210.7854">
			<stop  offset="2.403846e-04" style="stop-color:#00CCFF"/>
			<stop  offset="1" style="stop-color:#004BFF"/>
		</linearGradient>
		<path class="st0" d="M46.6,89c-6.1,0-11,4.9-11,11c0,6.1,4.9,11,11,11c6.1,0,11-4.9,11-11C57.7,94,52.7,89,46.6,89z M46.6,107.2
			c-3.9,0-7.1-3.2-7.1-7.1c0-3.9,3.2-7.1,7.1-7.1c3.9,0,7.1,3.2,7.1,7.1C53.7,104,50.6,107.2,46.6,107.2z"/>
		<linearGradient id="SVGID_2_" gradientUnits="userSpaceOnUse" x1="87.5286" y1="73.8798" x2="87.5286" y2="210.7854">
			<stop  offset="2.403846e-04" style="stop-color:#00CCFF"/>
			<stop  offset="1" style="stop-color:#004BFF"/>
		</linearGradient>
		<path class="st1" d="M87.5,89c-6.1,0-11,4.9-11,11c0,6.1,4.9,11,11,11c6.1,0,11-4.9,11-11C98.6,94,93.6,89,87.5,89z M87.5,107.2
			c-3.9,0-7.1-3.2-7.1-7.1c0-3.9,3.2-7.1,7.1-7.1c3.9,0,7.1,3.2,7.1,7.1C94.7,104,91.5,107.2,87.5,107.2z"/>
		<linearGradient id="SVGID_3_" gradientUnits="userSpaceOnUse" x1="58.9349" y1="-42.7754" x2="58.9349" y2="94.1302">
			<stop  offset="2.403846e-04" style="stop-color:#00CCFF"/>
			<stop  offset="1" style="stop-color:#004BFF"/>
		</linearGradient>
		<path class="st2" d="M114.9,18.5H27.8l-1.1-6.9c-0.9-5.8-5.9-10.1-11.8-10H3c-1.1,0-2,0.9-2,2c0,1.1,0.9,2,2,2h12
			c3.9,0,7.3,2.8,7.9,6.7l9.5,59.8C33.1,77.7,38.1,82,44,82h58.5c1.1,0,2-0.9,2-2c0-1.1-0.9-2-2-2H44c-3.9,0-7.3-2.8-7.9-6.7
			l-1.6-10.2h59.9c5.1,0,9.6-3.2,11.2-8l11.1-32.1c0.2-0.6,0.1-1.3-0.3-1.8C116.1,18.8,115.5,18.5,114.9,18.5z M101.9,51.9
			c-1.1,3.2-4.1,5.4-7.5,5.4H33.9l-5.5-34.8h83.8L101.9,51.9z"/>
	</g>
	<g>
		<linearGradient id="SVGID_4_" gradientUnits="userSpaceOnUse" x1="1" y1="56.3" x2="116.8699" y2="56.3">
			<stop  offset="2.403846e-04" style="stop-color:#00CCFF"/>
			<stop  offset="1" style="stop-color:#004BFF"/>
		</linearGradient>
		<path class="st3" d="M46.6,89c-6.1,0-11,4.9-11,11c0,6.1,4.9,11,11,11c6.1,0,11-4.9,11-11C57.7,94,52.7,89,46.6,89z M46.6,107.2
			c-3.9,0-7.1-3.2-7.1-7.1c0-3.9,3.2-7.1,7.1-7.1c3.9,0,7.1,3.2,7.1,7.1C53.7,104,50.6,107.2,46.6,107.2z"/>
		<linearGradient id="SVGID_5_" gradientUnits="userSpaceOnUse" x1="1" y1="56.3" x2="116.8699" y2="56.3">
			<stop  offset="2.403846e-04" style="stop-color:#00CCFF"/>
			<stop  offset="1" style="stop-color:#004BFF"/>
		</linearGradient>
		<path class="st4" d="M87.5,89c-6.1,0-11,4.9-11,11c0,6.1,4.9,11,11,11c6.1,0,11-4.9,11-11C98.6,94,93.6,89,87.5,89z M87.5,107.2
			c-3.9,0-7.1-3.2-7.1-7.1c0-3.9,3.2-7.1,7.1-7.1c3.9,0,7.1,3.2,7.1,7.1C94.7,104,91.5,107.2,87.5,107.2z"/>
		<linearGradient id="SVGID_6_" gradientUnits="userSpaceOnUse" x1="1" y1="56.3" x2="116.8699" y2="56.3">
			<stop  offset="2.403846e-04" style="stop-color:#00CCFF"/>
			<stop  offset="1" style="stop-color:#004BFF"/>
		</linearGradient>
		<path class="st5" d="M114.9,18.5H27.8l-1.1-6.9c-0.9-5.8-5.9-10.1-11.8-10H3c-1.1,0-2,0.9-2,2c0,1.1,0.9,2,2,2h12
			c3.9,0,7.3,2.8,7.9,6.7l9.5,59.8C33.1,77.7,38.1,82,44,82h58.5c1.1,0,2-0.9,2-2c0-1.1-0.9-2-2-2H44c-3.9,0-7.3-2.8-7.9-6.7
			l-1.6-10.2h59.9c5.1,0,9.6-3.2,11.2-8l11.1-32.1c0.2-0.6,0.1-1.3-0.3-1.8C116.1,18.8,115.5,18.5,114.9,18.5z M101.9,51.9
			c-1.1,3.2-4.1,5.4-7.5,5.4H33.9l-5.5-34.8h83.8L101.9,51.9z"/>
	</g>
</g>
<g>
	<g>
		<linearGradient id="SVGID_7_" gradientUnits="userSpaceOnUse" x1="136.8413" y1="59.8538" x2="252.7651" y2="59.8538">
			<stop  offset="1.502404e-03" style="stop-color:#DA8CFF"/>
			<stop  offset="1" style="stop-color:#9A55FF"/>
		</linearGradient>
		<path class="st6" d="M136.8,111.1V8.6h29.9l28.8,56.6l28.6-56.6h28.6v102.5h-25V48.9l-24.4,47.6h-17.5l-24.2-46.6v61.2H136.8z"/>
		<linearGradient id="SVGID_8_" gradientUnits="userSpaceOnUse" x1="268.8228" y1="70.4387" x2="352.626" y2="70.4387">
			<stop  offset="1.502404e-03" style="stop-color:#DA8CFF"/>
			<stop  offset="1" style="stop-color:#9A55FF"/>
		</linearGradient>
		<path class="st7" d="M327.8,39.6v-9.8h24.8v81.3h-24.8v-10.5c-2.5,3.8-5.7,6.7-9.6,8.8c-3.8,2.1-8.2,3.1-12.9,3.1
			c-5.1,0-9.8-1-14.3-3.1c-4.5-2.1-8.4-5-11.7-8.8c-3.3-3.7-5.9-8.2-7.7-13.4c-1.9-5.2-2.8-10.7-2.8-16.6c0-5.9,0.9-11.5,2.8-16.7
			c1.8-5.2,4.4-9.7,7.7-13.6c3.3-3.8,7.2-6.8,11.8-8.9c4.6-2.1,9.4-3.1,14.5-3.1C315.4,28.3,322.8,32.1,327.8,39.6z M294.4,70.5
			c0,4.5,0.9,8.4,2.7,11.8c1.8,3.4,4,5.7,6.6,7c2.6,1.3,5.1,2,7.7,2c5.1,0,9.2-1.9,12.3-5.8c3.2-3.8,4.7-8.8,4.7-15
			c0-6.2-1.6-11.3-4.7-15.1c-3.2-3.8-7.3-5.8-12.5-5.8c-3.9,0-7.2,1.1-9.8,3.4c-2.6,2.2-4.5,5-5.5,8.2
			C294.9,64.5,294.4,67.6,294.4,70.5z"/>
		<linearGradient id="SVGID_9_" gradientUnits="userSpaceOnUse" x1="367.9551" y1="70.4387" x2="448.1084" y2="70.4387">
			<stop  offset="1.502404e-03" style="stop-color:#DA8CFF"/>
			<stop  offset="1" style="stop-color:#9A55FF"/>
		</linearGradient>
		<path class="st8" d="M368,70.2c0-5.8,1-11.4,3.1-16.6c2.1-5.2,5-9.7,8.8-13.4c3.8-3.7,8.2-6.7,13.4-8.8c5.1-2.1,10.5-3.1,16.1-3.1
			c3.6,0,7.4,0.5,11.4,1.5c4,1,8.1,2.8,12.3,5.6c4.2,2.8,7.5,6.4,10.1,10.9c2.5,4.5,4.2,9.1,5,13.9h-27c-2.1-7-6.3-10.5-12.6-10.5
			c-3.1,0-5.9,1.1-8.4,3.3c-2.5,2.2-4.2,4.9-5.2,8.2c-1,3.3-1.5,6.4-1.5,9.2c0,2.9,0.5,6,1.5,9.3c1,3.3,2.8,6,5.3,8.2
			c2.5,2.2,5.4,3.4,8.5,3.4c3,0,5.6-0.9,7.9-2.8c2.2-1.8,3.7-4.4,4.4-7.7h27c-2,10.3-6.5,18.2-13.4,23.7c-6.9,5.5-15.5,8.2-25.8,8.2
			c-4.1,0-8.4-0.7-13.1-2.1c-4.6-1.4-9.2-4.1-13.9-8c-4.6-3.9-8.1-8.8-10.5-14.6C369.1,82,368,76.2,368,70.2z"/>
		<linearGradient id="SVGID_10_" gradientUnits="userSpaceOnUse" x1="457.5986" y1="70.4387" x2="538.9199" y2="70.4387">
			<stop  offset="1.502404e-03" style="stop-color:#DA8CFF"/>
			<stop  offset="1" style="stop-color:#9A55FF"/>
		</linearGradient>
		<path class="st9" d="M498.8,92c3.1,0,5.8-0.8,8.2-2.4c2.3-1.6,3.8-4,4.5-7.2h26.3c-2.1,9.5-6.6,17-13.5,22.3
			c-6.9,5.3-15.4,8-25.6,8c-4.1,0-8.4-0.7-13.1-2.1c-4.6-1.4-9.2-4.1-13.9-8c-4.6-3.9-8.1-8.8-10.5-14.6c-2.4-5.8-3.6-11.7-3.6-17.7
			c0-5.8,1-11.4,3.1-16.6c2.1-5.2,5-9.7,8.8-13.4c3.8-3.7,8.2-6.7,13.4-8.8c5.1-2.1,10.5-3.1,16.1-3.1c5.4,0,10.6,0.9,15.5,2.7
			c4.9,1.8,9.1,4.5,12.8,8c3.6,3.6,6.5,7.9,8.5,13.1c2,5.2,3.1,10.9,3.1,17.2c0,2.8-0.2,5.5-0.6,7.9h-55.2c1,4.5,2.9,8.1,5.7,10.7
			C491.7,90.6,495,92,498.8,92z M498.8,48.9c-3.6,0-6.8,1.2-9.5,3.6c-2.7,2.4-4.7,5.6-5.8,9.6h30.1c-0.3-1.9-1-4-2.3-6.1
			c-1.2-2.1-3-3.8-5.3-5.1C503.6,49.6,501.2,48.9,498.8,48.9z"/>
		<linearGradient id="SVGID_11_" gradientUnits="userSpaceOnUse" x1="549.1406" y1="70.4387" x2="634.2578" y2="70.4387">
			<stop  offset="1.502404e-03" style="stop-color:#DA8CFF"/>
			<stop  offset="1" style="stop-color:#9A55FF"/>
		</linearGradient>
		<path class="st10" d="M591.8,28.3c5.9,0,11.5,1,16.8,3.1c5.3,2.1,9.8,5,13.7,8.8c3.8,3.7,6.8,8.2,8.9,13.4
			c2.1,5.2,3.1,10.7,3.1,16.6c0,5.9-1,11.5-3.1,16.7c-2.1,5.2-5.1,9.7-8.9,13.6c-3.8,3.8-8.4,6.8-13.6,8.9
			c-5.2,2.1-10.8,3.1-16.7,3.1c-5.9,0-11.6-1-16.9-3.1c-5.3-2.1-9.9-5.1-13.7-8.9c-3.8-3.8-6.8-8.4-9-13.6
			c-2.1-5.2-3.2-10.8-3.2-16.7c0-5.8,1.1-11.4,3.2-16.6c2.1-5.2,5.1-9.7,9-13.4c3.8-3.7,8.4-6.7,13.7-8.8
			C580.2,29.4,585.8,28.3,591.8,28.3z M591.8,49.6c-5.1,0-9.2,1.9-12.3,5.8c-3.2,3.8-4.7,8.8-4.7,15c0,6.2,1.6,11.3,4.7,15.1
			c3.2,3.8,7.3,5.8,12.5,5.8c3.9,0,7.2-1.1,9.8-3.4c2.6-2.2,4.5-5,5.5-8.2c1-3.3,1.5-6.4,1.5-9.3c0-4.5-0.9-8.4-2.7-11.8
			c-1.8-3.4-4-5.7-6.6-7C596.9,50.3,594.3,49.6,591.8,49.6z"/>
	</g>
	<g>
		<linearGradient id="SVGID_12_" gradientUnits="userSpaceOnUse" x1="136.8413" y1="60.5837" x2="634.2578" y2="60.5837">
			<stop  offset="2.403846e-04" style="stop-color:#00CCFF"/>
			<stop  offset="1" style="stop-color:#004BFF"/>
		</linearGradient>
		<path class="st11" d="M136.8,111.1V8.6h29.9l28.8,56.6l28.6-56.6h28.6v102.5h-25V48.9l-24.4,47.6h-17.5l-24.2-46.6v61.2H136.8z"/>
		<linearGradient id="SVGID_13_" gradientUnits="userSpaceOnUse" x1="136.8413" y1="60.5837" x2="634.2578" y2="60.5837">
			<stop  offset="2.403846e-04" style="stop-color:#00CCFF"/>
			<stop  offset="1" style="stop-color:#004BFF"/>
		</linearGradient>
		<path class="st12" d="M327.8,39.6v-9.8h24.8v81.3h-24.8v-10.5c-2.5,3.8-5.7,6.7-9.6,8.8c-3.8,2.1-8.2,3.1-12.9,3.1
			c-5.1,0-9.8-1-14.3-3.1c-4.5-2.1-8.4-5-11.7-8.8c-3.3-3.7-5.9-8.2-7.7-13.4c-1.9-5.2-2.8-10.7-2.8-16.6c0-5.9,0.9-11.5,2.8-16.7
			c1.8-5.2,4.4-9.7,7.7-13.6c3.3-3.8,7.2-6.8,11.8-8.9c4.6-2.1,9.4-3.1,14.5-3.1C315.4,28.3,322.8,32.1,327.8,39.6z M294.4,70.5
			c0,4.5,0.9,8.4,2.7,11.8c1.8,3.4,4,5.7,6.6,7c2.6,1.3,5.1,2,7.7,2c5.1,0,9.2-1.9,12.3-5.8c3.2-3.8,4.7-8.8,4.7-15
			c0-6.2-1.6-11.3-4.7-15.1c-3.2-3.8-7.3-5.8-12.5-5.8c-3.9,0-7.2,1.1-9.8,3.4c-2.6,2.2-4.5,5-5.5,8.2
			C294.9,64.5,294.4,67.6,294.4,70.5z"/>
		<linearGradient id="SVGID_14_" gradientUnits="userSpaceOnUse" x1="136.8413" y1="60.5837" x2="634.2578" y2="60.5837">
			<stop  offset="2.403846e-04" style="stop-color:#00CCFF"/>
			<stop  offset="1" style="stop-color:#004BFF"/>
		</linearGradient>
		<path class="st13" d="M368,70.2c0-5.8,1-11.4,3.1-16.6c2.1-5.2,5-9.7,8.8-13.4c3.8-3.7,8.2-6.7,13.4-8.8
			c5.1-2.1,10.5-3.1,16.1-3.1c3.6,0,7.4,0.5,11.4,1.5c4,1,8.1,2.8,12.3,5.6c4.2,2.8,7.5,6.4,10.1,10.9c2.5,4.5,4.2,9.1,5,13.9h-27
			c-2.1-7-6.3-10.5-12.6-10.5c-3.1,0-5.9,1.1-8.4,3.3c-2.5,2.2-4.2,4.9-5.2,8.2c-1,3.3-1.5,6.4-1.5,9.2c0,2.9,0.5,6,1.5,9.3
			c1,3.3,2.8,6,5.3,8.2c2.5,2.2,5.4,3.4,8.5,3.4c3,0,5.6-0.9,7.9-2.8c2.2-1.8,3.7-4.4,4.4-7.7h27c-2,10.3-6.5,18.2-13.4,23.7
			c-6.9,5.5-15.5,8.2-25.8,8.2c-4.1,0-8.4-0.7-13.1-2.1c-4.6-1.4-9.2-4.1-13.9-8c-4.6-3.9-8.1-8.8-10.5-14.6
			C369.1,82,368,76.2,368,70.2z"/>
		<linearGradient id="SVGID_15_" gradientUnits="userSpaceOnUse" x1="136.8413" y1="60.5837" x2="634.2578" y2="60.5837">
			<stop  offset="2.403846e-04" style="stop-color:#00CCFF"/>
			<stop  offset="1" style="stop-color:#004BFF"/>
		</linearGradient>
		<path class="st14" d="M498.8,92c3.1,0,5.8-0.8,8.2-2.4c2.3-1.6,3.8-4,4.5-7.2h26.3c-2.1,9.5-6.6,17-13.5,22.3
			c-6.9,5.3-15.4,8-25.6,8c-4.1,0-8.4-0.7-13.1-2.1c-4.6-1.4-9.2-4.1-13.9-8c-4.6-3.9-8.1-8.8-10.5-14.6c-2.4-5.8-3.6-11.7-3.6-17.7
			c0-5.8,1-11.4,3.1-16.6c2.1-5.2,5-9.7,8.8-13.4c3.8-3.7,8.2-6.7,13.4-8.8c5.1-2.1,10.5-3.1,16.1-3.1c5.4,0,10.6,0.9,15.5,2.7
			c4.9,1.8,9.1,4.5,12.8,8c3.6,3.6,6.5,7.9,8.5,13.1c2,5.2,3.1,10.9,3.1,17.2c0,2.8-0.2,5.5-0.6,7.9h-55.2c1,4.5,2.9,8.1,5.7,10.7
			C491.7,90.6,495,92,498.8,92z M498.8,48.9c-3.6,0-6.8,1.2-9.5,3.6c-2.7,2.4-4.7,5.6-5.8,9.6h30.1c-0.3-1.9-1-4-2.3-6.1
			c-1.2-2.1-3-3.8-5.3-5.1C503.6,49.6,501.2,48.9,498.8,48.9z"/>
		<linearGradient id="SVGID_16_" gradientUnits="userSpaceOnUse" x1="136.8413" y1="60.5837" x2="634.2578" y2="60.5837">
			<stop  offset="2.403846e-04" style="stop-color:#00CCFF"/>
			<stop  offset="1" style="stop-color:#004BFF"/>
		</linearGradient>
		<path class="st15" d="M591.8,28.3c5.9,0,11.5,1,16.8,3.1c5.3,2.1,9.8,5,13.7,8.8c3.8,3.7,6.8,8.2,8.9,13.4
			c2.1,5.2,3.1,10.7,3.1,16.6c0,5.9-1,11.5-3.1,16.7c-2.1,5.2-5.1,9.7-8.9,13.6c-3.8,3.8-8.4,6.8-13.6,8.9
			c-5.2,2.1-10.8,3.1-16.7,3.1c-5.9,0-11.6-1-16.9-3.1c-5.3-2.1-9.9-5.1-13.7-8.9c-3.8-3.8-6.8-8.4-9-13.6
			c-2.1-5.2-3.2-10.8-3.2-16.7c0-5.8,1.1-11.4,3.2-16.6c2.1-5.2,5.1-9.7,9-13.4c3.8-3.7,8.4-6.7,13.7-8.8
			C580.2,29.4,585.8,28.3,591.8,28.3z M591.8,49.6c-5.1,0-9.2,1.9-12.3,5.8c-3.2,3.8-4.7,8.8-4.7,15c0,6.2,1.6,11.3,4.7,15.1
			c3.2,3.8,7.3,5.8,12.5,5.8c3.9,0,7.2-1.1,9.8-3.4c2.6-2.2,4.5-5,5.5-8.2c1-3.3,1.5-6.4,1.5-9.3c0-4.5-0.9-8.4-2.7-11.8
			c-1.8-3.4-4-5.7-6.6-7C596.9,50.3,594.3,49.6,591.8,49.6z"/>
	</g>
</g>
</svg>
