<?xml version="1.0" encoding="utf-8"?>
<!-- Generator: Adobe Illustrator 21.1.0, SVG Export Plug-In . SVG Version: 6.00 Build 0)  -->
<svg version="1.1" id="Layer_1" xmlns="http://www.w3.org/2000/svg" xmlns:xlink="http://www.w3.org/1999/xlink" x="0px" y="0px"
	 viewBox="0 0 102.5 102.5" style="enable-background:new 0 0 102.5 102.5;" xml:space="preserve">
<style type="text/css">
	.st0{fill:url(#SVGID_1_);}
	.st1{fill:url(#SVGID_2_);}
	.st2{fill:url(#SVGID_3_);}
	.st3{fill:url(#SVGID_4_);}
	.st4{fill:url(#SVGID_5_);}
	.st5{fill:url(#SVGID_6_);}
</style>
<g>
	<g>
		
			<linearGradient id="SVGID_1_" gradientUnits="userSpaceOnUse" x1="40.4486" y1="37.1435" x2="40.4486" y2="-83.8718" gradientTransform="matrix(1 0 0 -1 0 104)">
			<stop  offset="2.403846e-04" style="stop-color:#00CCFF"/>
			<stop  offset="1" style="stop-color:#004BFF"/>
		</linearGradient>
		<path class="st0" d="M40.4,80.2c-5.4,0-9.7,4.3-9.7,9.7c0,5.4,4.3,9.7,9.7,9.7s9.7-4.3,9.7-9.7C50.3,84.6,45.8,80.2,40.4,80.2z
			 M40.4,96.3c-3.4,0-6.3-2.8-6.3-6.3c0-3.4,2.8-6.3,6.3-6.3c3.4,0,6.3,2.8,6.3,6.3C46.7,93.5,44,96.3,40.4,96.3z"/>
		
			<linearGradient id="SVGID_2_" gradientUnits="userSpaceOnUse" x1="76.6014" y1="37.1435" x2="76.6014" y2="-83.8718" gradientTransform="matrix(1 0 0 -1 0 104)">
			<stop  offset="2.403846e-04" style="stop-color:#00CCFF"/>
			<stop  offset="1" style="stop-color:#004BFF"/>
		</linearGradient>
		<path class="st1" d="M76.6,80.2c-5.4,0-9.7,4.3-9.7,9.7c0,5.4,4.3,9.7,9.7,9.7s9.7-4.3,9.7-9.7C86.4,84.6,82,80.2,76.6,80.2z
			 M76.6,96.3c-3.4,0-6.3-2.8-6.3-6.3c0-3.4,2.8-6.3,6.3-6.3s6.3,2.8,6.3,6.3C83,93.5,80.1,96.3,76.6,96.3z"/>
		
			<linearGradient id="SVGID_3_" gradientUnits="userSpaceOnUse" x1="51.3203" y1="140.2587" x2="51.3203" y2="19.2435" gradientTransform="matrix(1 0 0 -1 0 104)">
			<stop  offset="2.403846e-04" style="stop-color:#00CCFF"/>
			<stop  offset="1" style="stop-color:#004BFF"/>
		</linearGradient>
		<path class="st2" d="M100.8,17.9h-77l-1-6.1C22.1,6.7,17.6,2.9,12.4,3H1.9c-1,0-1.8,0.8-1.8,1.8s0.8,1.8,1.8,1.8h10.6
			c3.4,0,6.5,2.5,7,5.9l8.4,52.9c0.6,5,5,8.8,10.3,8.8h51.7c1,0,1.8-0.8,1.8-1.8c0-1-0.8-1.8-1.8-1.8H38.1c-3.4,0-6.5-2.5-7-5.9
			l-1.4-9h52.9c4.5,0,8.5-2.8,9.9-7.1l9.8-28.4c0.2-0.5,0.1-1.1-0.3-1.6C101.9,18.2,101.4,17.9,100.8,17.9z M89.3,47.4
			c-1,2.8-3.6,4.8-6.6,4.8H29.2l-4.9-30.8h74.1L89.3,47.4z"/>
	</g>
	<g>
		
			<linearGradient id="SVGID_4_" gradientUnits="userSpaceOnUse" x1="0.1407" y1="14.055" x2="102.5618" y2="14.055" gradientTransform="matrix(1 0 0 -1 0 104)">
			<stop  offset="2.403846e-04" style="stop-color:#00CCFF"/>
			<stop  offset="1" style="stop-color:#004BFF"/>
		</linearGradient>
		<path class="st3" d="M40.4,80.2c-5.4,0-9.7,4.3-9.7,9.7c0,5.4,4.3,9.7,9.7,9.7s9.7-4.3,9.7-9.7C50.3,84.6,45.8,80.2,40.4,80.2z
			 M40.4,96.3c-3.4,0-6.3-2.8-6.3-6.3c0-3.4,2.8-6.3,6.3-6.3c3.4,0,6.3,2.8,6.3,6.3C46.7,93.5,44,96.3,40.4,96.3z"/>
		
			<linearGradient id="SVGID_5_" gradientUnits="userSpaceOnUse" x1="0.1407" y1="14.055" x2="102.5618" y2="14.055" gradientTransform="matrix(1 0 0 -1 0 104)">
			<stop  offset="2.403846e-04" style="stop-color:#00CCFF"/>
			<stop  offset="1" style="stop-color:#004BFF"/>
		</linearGradient>
		<path class="st4" d="M76.6,80.2c-5.4,0-9.7,4.3-9.7,9.7c0,5.4,4.3,9.7,9.7,9.7s9.7-4.3,9.7-9.7C86.4,84.6,82,80.2,76.6,80.2z
			 M76.6,96.3c-3.4,0-6.3-2.8-6.3-6.3c0-3.4,2.8-6.3,6.3-6.3s6.3,2.8,6.3,6.3C83,93.5,80.1,96.3,76.6,96.3z"/>
		
			<linearGradient id="SVGID_6_" gradientUnits="userSpaceOnUse" x1="0.1407" y1="65.5006" x2="102.5" y2="65.5006" gradientTransform="matrix(1 0 0 -1 0 104)">
			<stop  offset="2.403846e-04" style="stop-color:#00CCFF"/>
			<stop  offset="1" style="stop-color:#004BFF"/>
		</linearGradient>
		<path class="st5" d="M100.8,17.9h-77l-1-6.1C22.1,6.7,17.6,2.9,12.4,3H1.9c-1,0-1.8,0.8-1.8,1.8s0.8,1.8,1.8,1.8h10.6
			c3.4,0,6.5,2.5,7,5.9l8.4,52.9c0.6,5,5,8.8,10.3,8.8h51.7c1,0,1.8-0.8,1.8-1.8c0-1-0.8-1.8-1.8-1.8H38.1c-3.4,0-6.5-2.5-7-5.9
			l-1.4-9h52.9c4.5,0,8.5-2.8,9.9-7.1l9.8-28.4c0.2-0.5,0.1-1.1-0.3-1.6C101.9,18.2,101.4,17.9,100.8,17.9z M89.3,47.4
			c-1,2.8-3.6,4.8-6.6,4.8H29.2l-4.9-30.8h74.1L89.3,47.4z"/>
	</g>
</g>
</svg>
