<?xml version="1.0" encoding="utf-8"?>
<!-- Generator: Adobe Illustrator 21.1.0, SVG Export Plug-In . SVG Version: 6.00 Build 0)  -->
<svg version="1.1" id="Layer_1" xmlns="http://www.w3.org/2000/svg" xmlns:xlink="http://www.w3.org/1999/xlink" x="0px" y="0px"
	 viewBox="0 0 190 40" style="enable-background:new 0 0 190 40;" xml:space="preserve">
<style type="text/css">
	.st0{fill:#440099;}
	.st1{fill:#D30098;}
</style>
<g id="Symbols">
	<g id="Header_x2F_Pre-login---Compact" transform="translate(-36.000000, -18.000000)">
		<g id="Header_x2F_Logo" transform="translate(36.000000, 18.000000)">
			<g id="Group-26">
				<path id="Combined-Shape" d="M31.1,21c0,0,0.1-0.9-0.9-0.9h-7.6c-1,0-0.9-0.9-0.9-0.9l0.3-1.8c0,0,0.1-0.9,1.1-0.9h8.6
					c0.8,0,0.9-0.9,0.9-0.9l0.3-1.5c0,0,0.1-0.9-0.9-0.9H19.2c-1,0-1.1,0.9-1.1,0.9l-2.9,14.9c0,0-0.2,0.9,0.9,0.9h2.9
					c0.8,0,0.9-0.9,0.9-0.9l0.9-4.9c0,0,0.1-0.9,1.1-0.9h8c0.8,0,0.9-0.9,0.9-0.9L31.1,21z M93.1,26.8c-1,0-0.9-0.9-0.9-0.9l0.3-1.9
					c0,0,0.1-0.9,1.1-0.9h8.5c0.8,0,0.9-0.9,0.9-0.9l0.3-1.5c0,0,0.1-0.9-0.9-0.9h-8c-1,0-0.9-0.9-0.9-0.9l0.3-1.5
					c0,0,0.1-0.9,1.1-0.9h9c0.8,0,0.9-0.9,0.9-0.9l0.3-1.5c0,0,0.1-0.9-0.9-0.9H90.9c-1,0-1.1,0.9-1.1,0.9l-2.9,14.9
					c0,0-0.2,0.9,0.9,0.9h14.1c0.8,0,0.9-0.9,0.9-0.9l0.3-1.5c0,0,0.1-0.9-0.9-0.9H93.1z M117.3,20c-1,0-1.1,0.9-1.1,0.9l-0.3,1.5
					c0,0-0.2,0.9,0.9,0.9h2.7c0,0,0.8,0,0.6,0.8l-0.2,1.2c0,0-0.1,1.1-0.8,1.3c0,0-1.7,0.6-4.5,0.6c-2.7,0-6.1-1.1-6.1-4.8
					c0-3.7,4.8-6.1,8.4-6.1c0,0,3,0,4.9,1.2c0,0,0.6,0.5,1.1,0.1l2.5-1.6c0,0,1-0.5,0.3-1.1c0,0-2.4-1.9-8.2-1.9
					c-5.8,0-13.1,2.7-13.8,9.6c0,0-1.2,7.8,10.6,7.9c0,0,4.1,0,8.3-1.2c0,0,1.4-0.4,1.6-1.5l1.3-6.7c0,0,0.2-1-0.9-1H117.3z
					 M74.1,30c-0.8,0-1.1-0.9-1.1-0.9l-6-14.9c0,0-0.4-0.9,0.5-0.9h3.5c0,0,1,0,1.3,0.9l3.7,9.8c0,0,0.3,0.9,1,0l7-9.9
					c0,0,0.6-0.9,1.6-0.9h3c0,0,1.2,0,0.6,0.9L78,29.2c0,0-0.6,0.8-1.6,0.8H74.1z M146.9,29.1l-6-14.9c-0.4-0.9-1.3-0.9-1.3-0.9
					h-2.1c-0.8,0-1.5,0.9-1.5,0.9l-11.8,14.9c-0.8,1,0.5,0.9,0.5,0.9h3.2c0,0,0.9,0,1.5-0.9l1.5-2.1c0,0,0.5-0.7,1.3-0.7h7.5
					c0,0,0.9,0,1.2,0.9l0.7,1.9c0,0,0.3,0.8,1.1,0.8h3.5C146.2,30,147.3,30.1,146.9,29.1z M138.4,23.2H135c-1.1,0-0.6-0.7-0.6-0.7
					l2.4-3.4c1-1.5,1.4,0,1.4,0l1.1,3.4C139.6,23.3,138.4,23.2,138.4,23.2z M60.5,13.4c-0.8,0.1-1.4,0.9-1.4,0.9L48.4,27.8
					c-0.8,1-1.5,0-1.5,0l-2.3-3.7c-0.7-1.1,0.8-1.6,0.8-1.6c1.8-0.6,4.1-1.9,4.2-5.1c0.1-4.4-7.9-4.1-7.9-4.1h-6.9
					c-1,0-1.1,0.9-1.1,0.9l-2.9,14.9c0,0-0.2,0.9,0.9,0.9h2.9c0.8,0,0.9-0.9,0.9-0.9l1-5c0,0,0.1-0.9,1.1-0.9h0.8c0.7,0,1,0.8,1,0.8
					l2.9,5c0,0,0.4,0.9,1.3,0.9h7.6c0,0,0.9,0,1.5-0.9l1.5-2.1c0,0,0.5-0.7,1.3-0.7h7.5c0,0,0.9,0,1.2,0.9l0.7,1.9
					c0,0,0.3,0.8,1.1,0.8h3.5c0,0,1.1,0.1,0.7-0.9l-6-14.9c-0.4-0.9-1.3-0.9-1.3-0.9h-0.1L60.5,13.4z M61.6,23.2h-3.4
					c-1.1,0-0.6-0.7-0.6-0.7l2.4-3.4c1-1.5,1.4,0,1.4,0l1.1,3.4C62.7,23.3,61.6,23.2,61.6,23.2z M41,20.1l-2.8,0
					c-1,0-0.9-0.9-0.9-0.9l0.4-1.9c0,0,0.1-0.9,1.1-0.9h2.4c0,0,2.6-0.1,3.2,0.7c0,0,0.4,0.4,0.2,1.2C44.5,19.2,43.7,20,41,20.1z
					 M65.9,8h-2.2v0c-0.8,0.1-1.2,0.7-1.2,0.7l-1.7,2.1c-0.6,0.8,0.5,0.8,0.5,0.8h2.2v0c0.8-0.1,1.2-0.7,1.2-0.7l1.7-2.1
					C67,8,65.9,8,65.9,8z"/>
				<path id="Fill-17" class="st0" d="M157.4,31.5c8.5-2.2,17.3-5.7,17.4-10.7c0,0,1.2-6.5-16.9-10c0,0-3.3-0.7-4,0
					c-0.6,0.7,1.9,1.6,1.9,1.6c4.9,1.9,10.2,4.9,10.4,8.6c0,0,1.2,4.7-10.3,9.2c0,0-2.4,0.9-2.1,1.5
					C154.1,32.4,156.5,31.7,157.4,31.5"/>
				<path id="Fill-19" class="st1" d="M155.4,29.5c4.9-1.9,9.6-4.6,9.6-8.2c0,0,0.7-4.2-9.5-8.3c-0.3-0.1-1.6-0.5-2.3,0.1
					c-0.5,0.5,1,1.6,1,1.6c2,1.6,3.9,3.8,3.8,6.3c-0.1,2.3-1.8,4.3-4.3,6.1c0,0-2.3,1.5-1.7,2.4C152.6,30.5,154.4,29.8,155.4,29.5"
					/>
			</g>
		</g>
	</g>
</g>
</svg>
